<?xml version="1.0" standalone="no"?>
<svg viewBox="0 0 200 200" xmlns="http://www.w3.org/2000/svg">
  <path fill="#D6E416" d="M43.4,-75.5C57.5,-67.1,71.1,-58,79.2,-45.3C87.3,-32.6,90,-16.3,89.3,-0.4C88.6,15.5,84.5,31,77,44.6C69.4,58.2,58.3,69.9,44.9,78.6C31.4,87.3,15.7,92.9,-0.5,93.7C-16.7,94.5,-33.3,90.5,-46.1,81.5C-58.9,72.5,-67.8,58.4,-75.1,44C-82.5,29.5,-88.2,14.8,-88,0.1C-87.9,-14.6,-81.8,-29.2,-73.9,-42.6C-66,-56,-56.2,-68.2,-43.6,-77.4C-30.9,-86.7,-15.5,-93,-0.4,-92.3C14.7,-91.6,29.4,-83.9,43.4,-75.5Z" transform="translate(100 100)" />
</svg>
